<svg width="256" height="256" viewBox="0 0 256 256" fill="none" xmlns="http://www.w3.org/2000/svg">
  <defs>
    <radialGradient id="bgGlow" cx="0" cy="0" r="1" gradientUnits="userSpaceOnUse" gradientTransform="translate(72 54) rotate(42) scale(210 220)">
      <stop stop-color="#203320"/>
      <stop offset="0.5" stop-color="#11191A"/>
      <stop offset="1" stop-color="#070A0B"/>
    </radialGradient>
    <linearGradient id="ring" x1="46" y1="38" x2="208" y2="214" gradientUnits="userSpaceOnUse">
      <stop stop-color="#F1FFB2"/>
      <stop offset="0.52" stop-color="#CCFF00"/>
      <stop offset="1" stop-color="#6AF08A"/>
    </linearGradient>
    <linearGradient id="car" x1="70" y1="78" x2="176" y2="168" gradientUnits="userSpaceOnUse">
      <stop stop-color="#F6FFD6"/>
      <stop offset="1" stop-color="#CCFF00"/>
    </linearGradient>
    <linearGradient id="glass" x1="68" y1="56" x2="176" y2="180" gradientUnits="userSpaceOnUse">
      <stop stop-color="#FFFFFF" stop-opacity="0.3"/>
      <stop offset="1" stop-color="#FFFFFF" stop-opacity="0"/>
    </linearGradient>
    <filter id="shadow" x="0" y="0" width="256" height="256" filterUnits="userSpaceOnUse" color-interpolation-filters="sRGB">
      <feDropShadow dx="0" dy="14" stdDeviation="16" flood-color="#CCFF00" flood-opacity="0.12"/>
      <feDropShadow dx="0" dy="18" stdDeviation="28" flood-color="#000000" flood-opacity="0.45"/>
    </filter>
  </defs>
  <g filter="url(#shadow)">
    <rect x="28" y="28" width="200" height="200" rx="68" fill="url(#bgGlow)"/>
    <rect x="29" y="29" width="198" height="198" rx="67" stroke="rgba(255,255,255,0.12)"/>
    <circle cx="128" cy="128" r="62" fill="#0D1112" stroke="url(#ring)" stroke-width="10"/>
    <circle cx="128" cy="128" r="44" fill="#101617" stroke="rgba(255,255,255,0.08)" stroke-width="2"/>
    <path d="M88 136.5L98.5 118.5C101.7 113 107.5 109.7 113.8 109.7H149.7C155.9 109.7 161.7 113 164.9 118.4L174.7 135.2C176.5 138.2 174.3 142 170.8 142H91.4C87.7 142 85.5 138 87.5 134.9L88 136.5Z" fill="url(#car)"/>
    <path d="M101.8 108.2L112.4 96.8C114.6 94.5 117.6 93.2 120.8 93.2H141.5C147.6 93.2 153.2 96.2 156.5 101.1L162 109.1H101.8V108.2Z" fill="#E8FF9D"/>
    <path d="M104 126H164" stroke="#F6FFD6" stroke-width="5" stroke-linecap="round"/>
    <circle cx="111" cy="146" r="10" fill="#F7FFE4"/>
    <circle cx="149" cy="146" r="10" fill="#F7FFE4"/>
    <path d="M66 62C96 46 152 42 191 66" stroke="url(#glass)" stroke-width="10" stroke-linecap="round"/>
    <path d="M70 190C104 206 153 205 186 186" stroke="rgba(255,255,255,0.08)" stroke-width="4" stroke-linecap="round"/>
  </g>
</svg>
