<svg width="860" height="220" viewBox="0 0 860 220" fill="none" xmlns="http://www.w3.org/2000/svg">
  <defs>
    <linearGradient id="panel" x1="40" y1="18" x2="820" y2="202" gradientUnits="userSpaceOnUse">
      <stop stop-color="#0E1416"/>
      <stop offset="0.5" stop-color="#131B1E"/>
      <stop offset="1" stop-color="#090C0E"/>
    </linearGradient>
    <linearGradient id="accent" x1="56" y1="40" x2="250" y2="186" gradientUnits="userSpaceOnUse">
      <stop stop-color="#F1FFB2"/>
      <stop offset="0.45" stop-color="#CCFF00"/>
      <stop offset="1" stop-color="#6AF08A"/>
    </linearGradient>
    <linearGradient id="shine" x1="84" y1="28" x2="622" y2="194" gradientUnits="userSpaceOnUse">
      <stop stop-color="#FFFFFF" stop-opacity="0.24"/>
      <stop offset="1" stop-color="#FFFFFF" stop-opacity="0"/>
    </linearGradient>
    <filter id="shadow" x="0" y="0" width="860" height="220" filterUnits="userSpaceOnUse" color-interpolation-filters="sRGB">
      <feDropShadow dx="0" dy="16" stdDeviation="14" flood-color="#CCFF00" flood-opacity="0.10"/>
      <feDropShadow dx="0" dy="18" stdDeviation="24" flood-color="#000000" flood-opacity="0.35"/>
    </filter>
  </defs>
  <g filter="url(#shadow)">
    <rect x="28" y="24" width="804" height="164" rx="42" fill="url(#panel)"/>
    <rect x="28.75" y="24.75" width="802.5" height="162.5" rx="41.25" stroke="#FFFFFF" stroke-opacity="0.09"/>
    <path d="M28 24H832V84C726 46 612 30 480 30C311 30 160 52 28 100V24Z" fill="url(#shine)"/>

    <rect x="62" y="46" width="128" height="128" rx="42" fill="#0C1012" stroke="url(#accent)" stroke-width="4"/>
    <circle cx="126" cy="110" r="41" fill="#101617" stroke="url(#accent)" stroke-width="8"/>
    <circle cx="126" cy="110" r="29" fill="#11171A" stroke="#FFFFFF" stroke-opacity="0.08" stroke-width="2"/>
    <path d="M98 115L104.8 103.2C107.1 99.2 111.3 96.8 115.8 96.8H139.4C143.8 96.8 147.9 99.1 150.2 103L157.2 115C158.8 117.8 156.8 121.2 153.6 121.2H101.3C98.2 121.2 96.2 118.1 97.8 115.4L98 115Z" fill="url(#accent)"/>
    <path d="M107.6 95.8L114.7 88.2C116.3 86.5 118.5 85.5 120.8 85.5H134.7C139.2 85.5 143.3 87.8 145.8 91.4L149.8 97.1H107.6V95.8Z" fill="#E7FF9A"/>
    <path d="M106 107.5H149.5" stroke="#F8FFDD" stroke-width="3.8" stroke-linecap="round"/>
    <circle cx="113.6" cy="122.8" r="6.2" fill="#F8FFDD"/>
    <circle cx="141.6" cy="122.8" r="6.2" fill="#F8FFDD"/>

    <g>
      <text x="228" y="103" fill="#F7FAF6" font-family="Inter, Arial, Helvetica, sans-serif" font-size="58" font-weight="800" letter-spacing="0.4">Auto Mart</text>
      <text x="228" y="136" fill="#A6B8A9" font-family="Inter, Arial, Helvetica, sans-serif" font-size="22" font-weight="500" letter-spacing="3.6">PREMIUM SECOND-HAND VEHICLES</text>
      <rect x="228" y="150" width="220" height="4" rx="2" fill="url(#accent)"/>
    </g>

    <g opacity="0.95">
      <rect x="610" y="62" width="176" height="42" rx="21" fill="rgba(255,255,255,0.04)" stroke="rgba(255,255,255,0.08)"/>
      <text x="630" y="88" fill="#DCE7DE" font-family="Inter, Arial, Helvetica, sans-serif" font-size="16" font-weight="700" letter-spacing="1.4">VERIFIED LISTINGS</text>
      <rect x="610" y="114" width="176" height="42" rx="21" fill="rgba(204,255,0,0.08)" stroke="rgba(204,255,0,0.20)"/>
      <text x="630" y="140" fill="#ECFFC2" font-family="Inter, Arial, Helvetica, sans-serif" font-size="16" font-weight="700" letter-spacing="1.4">ELITE MARKETPLACE</text>
    </g>
  </g>
</svg>
